#tb 0: 1/5
0,          0,          0,        1,   864000, 0x9b1cee65
0,          1,          1,        1,   864000, 0x82950e3f
0,          2,          2,        1,   864000, 0x335f9678
0,          3,          3,        1,   864000, 0x6b86b7e7
0,          4,          4,        1,   864000, 0x25618cf2
0,          5,          5,        1,   864000, 0xed2196c9
0,          6,          6,        1,   864000, 0xbeaa31ba
0,          7,          7,        1,   864000, 0x14e6c8ab
0,          8,          8,        1,   864000, 0x17e5c196
0,          9,          9,        1,   864000, 0x4aa15110
0,         10,         10,        1,   864000, 0x4aa15110
0,         11,         11,        1,   864000, 0x4aa15110
0,         12,         12,        1,   864000, 0x3c2d3809
0,         13,         13,        1,   864000, 0xd075f4d0
0,         14,         14,        1,   864000, 0x0c3f2833
0,         15,         15,        1,   864000, 0xe7471872
0,         16,         16,        1,   864000, 0x4300b71d
0,         17,         17,        1,   864000, 0x6b5844ec
0,         18,         18,        1,   864000, 0xb3ebc395
0,         19,         19,        1,   864000, 0x39aa8a7d
0,         20,         20,        1,   864000, 0x52a3d93d
0,         21,         21,        1,   864000, 0x73adbdac
0,         22,         22,        1,   864000, 0xa9fd6cdc
0,         23,         23,        1,   864000, 0x4a085344
0,         24,         24,        1,   864000, 0xc21b943c
0,         25,         25,        1,   864000, 0xfaef6ed4
0,         26,         26,        1,   864000, 0xa3e9163c
0,         27,         27,        1,   864000, 0x917e2be4
0,         28,         28,        1,   864000, 0x2d89d534
0,         29,         29,        1,   864000, 0x6fe5a9e4
0,         30,         30,        1,   864000, 0x71af29ec
0,         31,         31,        1,   864000, 0x8f33f6ad
0,         32,         32,        1,   864000, 0xe7d46a24
0,         33,         33,        1,   864000, 0xb631e044
0,         34,         34,        1,   864000, 0x77db01cb
0,         35,         35,        1,   864000, 0x9861b6ec
0,         36,         36,        1,   864000, 0x973bd263
0,         37,         37,        1,   864000, 0xdd4c175b
0,         38,         38,        1,   864000, 0xdc28469b
0,         39,         39,        1,   864000, 0x67393ebb
0,         40,         40,        1,   864000, 0x01a06813
0,         41,         41,        1,   864000, 0x63e88f73
0,         42,         42,        1,   864000, 0x3ffbdd73
0,         43,         43,        1,   864000, 0xd25f790b
0,         44,         44,        1,   864000, 0x14e3c5d3
0,         45,         45,        1,   864000, 0x0d3d1202
0,         46,         46,        1,   864000, 0x69decf03
0,         47,         47,        1,   864000, 0x1b20ab93
0,         48,         48,        1,   864000, 0xee2f8d4a
0,         49,         49,        1,   864000, 0xaac44c52
0,         50,         50,        1,   864000, 0x3f874a5a
0,         51,         51,        1,   864000, 0x239b2d7a
0,         52,         52,        1,   864000, 0xb85db552
0,         53,         53,        1,   864000, 0xb12962a2
0,         54,         54,        1,   864000, 0xb8270fd9
0,         55,         55,        1,   864000, 0x14930601
0,         56,         56,        1,   864000, 0x827a15c1
0,         57,         57,        1,   864000, 0xe31011d1
0,         58,         58,        1,   864000, 0xcd2154c1
0,         59,         59,        1,   864000, 0xad02dbd9
0,         60,         60,        1,   864000, 0x40c17d58
0,         61,         61,        1,   864000, 0x8219e3b9
0,         62,         62,        1,   864000, 0x2d348340
0,         63,         63,        1,   864000, 0x6b61dfc9
0,         64,         64,        1,   864000, 0xc8d95be1
0,         65,         65,        1,   864000, 0x70ba0918
0,         66,         66,        1,   864000, 0xdc728131
0,         67,         67,        1,   864000, 0x9b054a10
0,         68,         68,        1,   864000, 0x3983f751
0,         69,         69,        1,   864000, 0x325fe1a9
0,         70,         70,        1,   864000, 0x7a41eac0
0,         71,         71,        1,   864000, 0x324372a8
0,         72,         72,        1,   864000, 0xc014ea18
0,         73,         73,        1,   864000, 0x1a506a1f
0,         74,         74,        1,   864000, 0x47b59557
0,         75,         75,        1,   864000, 0x5f2e194f
0,         76,         76,        1,   864000, 0x9f6abb68
0,         77,         77,        1,   864000, 0x831d2b97
0,         78,         78,        1,   864000, 0x0635af7f
0,         79,         79,        1,   864000, 0xe54a5626
0,         80,         80,        1,   864000, 0x704dca4f
0,         81,         81,        1,   864000, 0x47de6676
0,         82,         82,        1,   864000, 0x609705fd
0,         83,         83,        1,   864000, 0x8d92e086
0,         84,         84,        1,   864000, 0xdb7dab5e
0,         85,         85,        1,   864000, 0xe6ccb686
0,         86,         86,        1,   864000, 0x0d137f66
0,         87,         87,        1,   864000, 0xd200035d
0,         88,         88,        1,   864000, 0x7dcb959d
0,         89,         89,        1,   864000, 0xee849f75
0,         90,         90,        1,   864000, 0x89d14acd
0,         91,         91,        1,   864000, 0x3738029d
0,         92,         92,        1,   864000, 0x6f4c4395
0,         93,         93,        1,   864000, 0x06334395
0,         94,         94,        1,   864000, 0x238b7c94
0,         95,         95,        1,   864000, 0xfa5d1e14
0,         96,         96,        1,   864000, 0x50b10e54
0,         97,         97,        1,   864000, 0x9ed3b6e4
0,         98,         98,        1,   864000, 0x68da9374
0,         99,         99,        1,   864000, 0xb32a137c
0,        100,        100,        1,   864000, 0x577d5084
0,        101,        101,        1,   864000, 0xd262176b
0,        102,        102,        1,   864000, 0xf58b44b3
0,        103,        103,        1,   864000, 0xd0828edc
0,        104,        104,        1,   864000, 0xc91a7544
0,        105,        105,        1,   864000, 0x18ae7f1c
0,        106,        106,        1,   864000, 0x82623643
0,        107,        107,        1,   864000, 0x9cf82cfb
0,        108,        108,        1,   864000, 0x93ad116b
0,        109,        109,        1,   864000, 0xa669044b
0,        110,        110,        1,   864000, 0x8adf88c3
0,        111,        111,        1,   864000, 0xb83fb413
0,        112,        112,        1,   864000, 0xb9e291f3
0,        113,        113,        1,   864000, 0x5833dcc3
0,        114,        114,        1,   864000, 0x4ab825aa
0,        115,        115,        1,   864000, 0xb52c3b53
0,        116,        116,        1,   864000, 0x0cb0dd53
0,        117,        117,        1,   864000, 0x98b8dd52
0,        118,        118,        1,   864000, 0x989230ba
0,        119,        119,        1,   864000, 0xaed4c073
0,        120,        120,        1,   864000, 0x76a7c83a
0,        121,        121,        1,   864000, 0x02711eea
0,        122,        122,        1,   864000, 0x8de65fe2
0,        123,        123,        1,   864000, 0xc1163689
0,        124,        124,        1,   864000, 0xc04f8b31
0,        125,        125,        1,   864000, 0x69218d2a
0,        126,        126,        1,   864000, 0x7e3abe62
0,        127,        127,        1,   864000, 0x00ebe27a
0,        128,        128,        1,   864000, 0x34803f11
0,        129,        129,        1,   864000, 0x85591cd9
0,        130,        130,        1,   864000, 0x8422fb51
0,        131,        131,        1,   864000, 0x67c759e1
0,        132,        132,        1,   864000, 0x4ac36af1
0,        133,        133,        1,   864000, 0xdf00fca2
0,        134,        134,        1,   864000, 0x74c633d1
0,        135,        135,        1,   864000, 0x00251c31
0,        136,        136,        1,   864000, 0x6d12a499
0,        137,        137,        1,   864000, 0x1b6492e1
0,        138,        138,        1,   864000, 0xdfc9a2a1
0,        139,        139,        1,   864000, 0x33dcac79
0,        140,        140,        1,   864000, 0x2305a499
0,        141,        141,        1,   864000, 0xe1f3ae71
0,        142,        142,        1,   864000, 0xc0cc92e1
0,        143,        143,        1,   864000, 0x53d3b261
0,        144,        144,        1,   864000, 0xf953aa81
0,        145,        145,        1,   864000, 0x4108da69
0,        146,        146,        1,   864000, 0xd6acf9e9
0,        147,        147,        1,   864000, 0xb97ed900
0,        148,        148,        1,   864000, 0x1d8b7a80
0,        149,        149,        1,   864000, 0xd5406cb8
0,        150,        150,        1,   864000, 0x5aa34948
0,        151,        151,        1,   864000, 0x328eee01
0,        152,        152,        1,   864000, 0xac92e621
0,        153,        153,        1,   864000, 0x4fa1f5e1
0,        154,        154,        1,   864000, 0xf7c4e8a8
0,        155,        155,        1,   864000, 0xc358bd58
0,        156,        156,        1,   864000, 0x29ec4b27
0,        157,        157,        1,   864000, 0xf7219c88
0,        158,        158,        1,   864000, 0xe77ff130
0,        159,        159,        1,   864000, 0x73683417
0,        160,        160,        1,   864000, 0x08b6be77
0,        161,        161,        1,   864000, 0x3a7eea6f
0,        162,        162,        1,   864000, 0xb319cce7
0,        163,        163,        1,   864000, 0x9607b13e
0,        164,        164,        1,   864000, 0x30543f0d
0,        165,        165,        1,   864000, 0x56915a9e
0,        166,        166,        1,   864000, 0x79f158a6
0,        167,        167,        1,   864000, 0x498b8bd6
0,        168,        168,        1,   864000, 0xe9ad7046
0,        169,        169,        1,   864000, 0xe9ad7046
0,        170,        170,        1,   864000, 0x10317e0e
0,        171,        171,        1,   864000, 0x10317e0e
0,        172,        172,        1,   864000, 0x10317e0e
0,        173,        173,        1,   864000, 0x99ec7046
0,        174,        174,        1,   864000, 0x924d46ee
0,        175,        175,        1,   864000, 0x98bf333e
0,        176,        176,        1,   864000, 0xb2625c96
0,        177,        177,        1,   864000, 0xb46b3926
0,        178,        178,        1,   864000, 0xeb4e5c96
0,        179,        179,        1,   864000, 0x87154ece
0,        180,        180,        1,   864000, 0x9e4c666e
0,        181,        181,        1,   864000, 0x65b53d16
0,        182,        182,        1,   864000, 0x99e85e8e
0,        183,        183,        1,   864000, 0x650ba17e
0,        184,        184,        1,   864000, 0x1ecb000e
0,        185,        185,        1,   864000, 0xb942327d
0,        186,        186,        1,   864000, 0x1bf20925
0,        187,        187,        1,   864000, 0x61dba6a5
0,        188,        188,        1,   864000, 0x5de16d8d
0,        189,        189,        1,   864000, 0x4eb1f75d
0,        190,        190,        1,   864000, 0x4eb1f75d
0,        191,        191,        1,   864000, 0xd0750144
